<?xml version="1.0" encoding="utf-8"?>
<!-- Generator: Adobe Illustrator 18.0.0, SVG Export Plug-In . SVG Version: 6.00 Build 0)  -->
<!DOCTYPE svg PUBLIC "-//W3C//DTD SVG 1.1//EN" "http://www.w3.org/Graphics/SVG/1.1/DTD/svg11.dtd">
<svg version="1.1" id="图形" xmlns="http://www.w3.org/2000/svg" xmlns:xlink="http://www.w3.org/1999/xlink" x="0px" y="0px"
	 viewBox="15.167 -16.333 1000.636 1000.678" enable-background="new 15.167 -16.333 1000.636 1000.678" xml:space="preserve">
<g>
	<path fill="#E88F46" d="M472.594,60.957c0,0-44.668,20.737,8.7,112.927c0,0-71.502,5.801-100.514,9.272
		C380.78,183.156,398.633,39.821,472.594,60.957z"/>
</g>
<g>
	<defs>
		<path id="SVGID_1_" d="M381.472,181.225c-76.223,18.185-140.376,48.647-171.368,80.116c0,0,99.754-46.949,174.102-24.449
			c0,0-222.901,8.705-294.716,233.888c0,0,37.721-61.659,131.706-73.816c0,0-290.569,122.418,2.857,514.862
			c-9.984-8.249,33.902-209.663,267.363-243.911c138.272-20.284,284.564-77.007,327.967-195.739
			c18.571-50.803,16.246-129.199-11.76-175.484c-11.189-18.492-52.084-16.358-62.311-34.103
			c-37.415-64.924-95.551-88.724-173.791-95.67"/>
	</defs>
	<clipPath id="SVGID_2_">
		<use xlink:href="#SVGID_1_"  overflow="visible"/>
	</clipPath>
	<g clip-path="url(#SVGID_2_)">
		<path fill="#F99F4E" d="M684.034,198.766c-49.651-26.554-44.03-23.992-85.03-31.591S301.91,143.665,186.358,289.94
			c-26.71,33.811-47.077,65.009-60.313,93.398c-17.516,37.569-22.542,70.216-13.245,97.487c8.699,25.518-9.42,52.354-13.42,77.981
			c-19.744,126.482,49.512,239.982,49.512,239.982c39.645-322.787,346.378-387.602,443.87-399.486
			C719.546,383.847,705.726,214.339,684.034,198.766z M630.051,274.768c-19.489,2.09-31.63-16.939-28.497-34.686
			c2.227-12.618,12.008-21.353,22.369-22.464c10.361-1.111,21.772,5.351,26.624,17.21
			C657.37,251.508,649.539,272.678,630.051,274.768z"/>
	</g>
</g>
<g>
	<path fill="#D83058" d="M799.307,366.457c0,0,2.769,32.838-13.937,36.21c-14.907,3.009-18.715-35.257-18.715-35.257l10.795-3.563
		L799.307,366.457"/>
</g>
<g>
	<path fill="#231815" d="M765.187,371.25c-7.602,0-15.631-3.001-21.912-12.002c-1.856-2.658-1.205-6.316,1.453-8.172
		c2.658-1.85,6.32-1.209,8.172,1.453c9.218,13.203,24.004,3.729,25.659,2.606c1.732-1.18,3.975-1.354,5.862-0.451
		c7.192,3.456,13.259,4.318,17.56,2.493c4.758-2.028,6.428-6.963,6.444-7.011c1.004-3.053,4.278-4.776,7.354-3.799
		c3.065,0.967,4.793,4.187,3.863,7.263c-0.31,1.017-3.282,10.047-12.822,14.242c-6.92,3.044-15.158,2.612-24.516-1.275
		C777.787,369.088,771.638,371.25,765.187,371.25z"/>
</g>
<g>
	<path fill="#E88F46" d="M702.198,138.761c0,0-15.879,7.898-21.323,53.917c0,0-32.335-18.358-43.445-18.386
		C637.431,174.292,686.042,115.673,702.198,138.761z"/>
</g>
<g>
	
		<path fill="none" stroke="#231815" stroke-width="3.6983" stroke-linecap="round" stroke-linejoin="round" stroke-miterlimit="10" d="
		M381.472,181.225"/>
</g>
<g>
	
		<path fill="none" stroke="#231815" stroke-width="3.6983" stroke-linecap="round" stroke-linejoin="round" stroke-miterlimit="10" d="
		M579.14,167.175"/>
</g>
<g>
	<path fill="#231815" d="M763.071,291.751c9.844-3.255,17.961-1.666,23.802,1.175c5.049,2.041,9.9,5.695,13.693,11.821
		c7.648,12.349-7.946,38.236-17.302,40.339S725.148,304.289,763.071,291.751z"/>
</g>
<g>
	
		<path fill="none" stroke="#231815" stroke-width="3.6983" stroke-linecap="round" stroke-linejoin="round" stroke-miterlimit="10" d="
		M447.079,166.919"/>
</g>
<g>
	
		<ellipse transform="matrix(-0.9528 0.3037 -0.3037 -0.9528 1216.2902 224.3307)" fill="#FFBE92" cx="590.704" cy="206.731" rx="24.732" ry="10.51"/>
</g>
<g>
	<path fill="#231815" d="M948.816,511.222H807.958c20.26-34.775,30.448-72.534,29.381-109.742c-0.14-4.789-0.186-9.755-0.236-14.831
		c-0.329-33.127-0.705-70.674-24.523-96.828c-9.175-10.074-21.21-12.855-31.827-15.305c-3.216-0.744-6.254-1.445-9.245-2.325
		c-9.737-2.86-13.519-8.461-19.242-16.938c-1.837-2.722-3.735-5.535-6.017-8.524c-3.063-4.012-6.374-7.881-9.804-11.675
		c0.489-1.128,0.758-2.368,0.682-3.679c-0.86-14.687-6.32-88.829-29.34-106.184c-4.971-3.743-10.644-5.043-16.402-3.751
		c-32.424,7.257-58.152,48.136-59.233,49.874c-0.039,0.062-0.058,0.131-0.095,0.194c-14.858-4.499-30.456-7.954-46.731-10.271
		c-0.02-0.03-0.034-0.065-0.055-0.094c-0.232-0.529-0.492-1.215-0.674-1.684c-0.244-0.624-0.442-1.079-0.511-1.219
		c-17.824-36.704-80.2-99.839-126.553-108.514c-35.09-6.574-47.028,24.928-58.59,55.378c-2.116,5.582-4.309,11.353-6.661,17.028
		c-6.294,15.18-14.752,35.694-17.461,53.162c-62.121,15.07-125.218,35.634-169.934,80.889c-2.491,2.521-2.825,6.463-0.79,9.365
		c2.034,2.904,5.847,3.935,9.071,2.46c43.688-20.054,83.528-30.332,119.067-30.771C214.03,264.748,111.264,357.462,82.389,468.94
		c-0.903,3.483,0.856,7.108,4.15,8.557c3.278,1.447,7.149,0.296,9.11-2.724c17.471-26.941,46.11-47.78,81.564-60.088
		c-41.758,31.936-72.985,80.118-85.198,133.911c-15.859,69.858-0.841,150.515,44.645,239.729
		c20.649,40.501,46.551,81.141,81.521,127.894c1.43,1.914,3.635,2.943,5.878,2.943c1.298,0,2.608-0.343,3.79-1.056
		c3.228-1.949,4.452-6.029,2.832-9.435c-4.843-10.173,0.942-23.752,6.048-35.735c0.821-1.932,1.62-3.811,2.317-5.522
		c13.759-32.606,33.1-62.814,56.757-89.648h613.137L948.816,511.222z M694.926,137.281c0.771-0.172,1.616-0.236,3.088,0.87
		c10.925,8.235,18.714,48.267,21.835,80.539c-16.332-14.24-35.439-26.33-56.58-35.685c-4.982-2.205-10.101-4.237-15.301-6.16
		C654.1,167.96,673.543,142.066,694.926,137.281z M280.92,772.665c-22.925,26.876-41.805,56.845-55.436,89.141
		c-0.701,1.732-1.469,3.53-2.255,5.38c-2.724,6.395-5.75,13.498-7.529,20.858c-27.398-38.095-48.601-72.32-65.968-106.381
		c-43.885-86.074-58.489-163.394-43.405-229.816c14.937-65.807,60.09-122.584,117.839-148.174c3.332-1.476,5.076-5.175,4.092-8.685
		c-0.98-3.507-4.359-5.758-8.005-5.299c-44.742,5.789-83.761,22.753-111.829,47.956c43.998-104.963,156.505-185.628,276.258-193.43
		c3.542-0.231,6.409-2.962,6.812-6.488c0.403-3.524-1.775-6.833-5.173-7.858c-38.589-11.63-83.191-9.375-133.047,6.665
		c38.449-23.868,84.547-37.362,129.901-48.171c3.597-0.858,5.907-4.232,5.574-7.812c0.096-0.343,0.188-0.688,0.234-1.051
		c2.023-15.987,10.594-36.655,16.851-51.743c2.437-5.882,4.669-11.758,6.827-17.442c12.236-32.236,20.238-50.285,42.173-46.164
		c36.717,6.875,93.371,58.699,113.76,96.053c-2.354,1.02-4.084,3.226-4.368,5.957c-0.422,4.03,2.507,7.637,6.537,8.058
		c31.571,3.284,60.698,10.756,86.57,22.206c31.657,14.011,58.369,34.487,77.251,59.21c2.023,2.648,3.801,5.283,5.518,7.829
		c6.13,9.077,12.461,18.461,27.267,22.809c3.406,1.002,6.8,1.786,10.082,2.544c9.76,2.253,18.188,4.2,24.279,10.888
		c20.052,22.016,20.397,56.589,20.699,87.093c0.05,5.171,0.101,10.229,0.24,15.108c1.042,36.279-10.07,74.829-31.296,108.547
		c-0.154,0.246-0.232,0.51-0.32,0.772h-471.02L280.92,772.665z M423.753,744.124c-5.483,4.566-11.876,7.726-19.176,9.478
		c-7.296,1.753-17.688,2.629-31.176,2.629h-30.494l11.861-34.605c3.576,0.244,6.184,0.366,7.827,0.366
		c4.34,0,8.067-0.895,11.19-2.691c3.123-1.792,5.324-3.991,6.603-6.601c1.279-2.61,3.204-7.66,5.773-15.164l47.737-139.272h60.888
		l-45.346,132.303c-6.789,19.808-11.396,32.546-13.821,38.213C433.192,734.447,429.239,739.559,423.753,744.124z M528.356,756.23
		l8.927-35.584h-21.776l-15.859,35.584h-62.949l98.911-197.967h88.007L590.584,756.23H528.356z M705.482,676.504h-16.344
		l-27.325,79.727h-60.892l67.851-197.967h61.326c16.58,0,28.956,1.099,37.124,3.297c8.16,2.205,13.775,5.382,16.832,9.538
		c3.057,4.161,4.371,9.193,3.933,15.102c-0.434,5.913-2.774,15.061-7.021,27.455l-5.909,17.239
		c-4.332,12.638-9.032,21.85-14.1,27.637c-5.068,5.789-12.252,10.231-21.559,13.329
		C730.091,674.956,718.788,676.504,705.482,676.504z M810.496,756.23h-60.892l67.851-197.967h60.892L810.496,756.23z"/>
	<path fill="#231815" d="M718.056,592.131l-17.266,50.38c1.705,0.083,3.185,0.124,4.44,0.124c5.591,0,9.873-1.162,12.837-3.485
		c2.968-2.325,5.704-7.155,8.218-14.49l5.572-16.264c2.321-6.765,2.577-11.169,0.767-13.207
		C730.819,593.154,725.96,592.131,718.056,592.131z"/>
	<path fill="#231815" d="M547.714,685.553c4.607-22.421,11.012-50.135,19.227-83.15c-19.195,37.907-32.594,65.625-40.181,83.15
		H547.714z"/>
</g>
</svg>
