<?xml version="1.0" encoding="utf-8"?>
<!-- Generator: Adobe Illustrator 18.0.0, SVG Export Plug-In . SVG Version: 6.00 Build 0)  -->
<!DOCTYPE svg PUBLIC "-//W3C//DTD SVG 1.1//EN" "http://www.w3.org/Graphics/SVG/1.1/DTD/svg11.dtd">
<svg version="1.1" id="图形" xmlns="http://www.w3.org/2000/svg" xmlns:xlink="http://www.w3.org/1999/xlink" x="0px" y="0px"
	 viewBox="15.167 -16.333 1000.636 1000.678" enable-background="new 15.167 -16.333 1000.636 1000.678" xml:space="preserve">
<g>
	<path fill="#E88F46" d="M482.665,105.486c0,0-42.051,19.522,8.19,106.31c0,0-69.451,4.052-94.624,8.729
		C396.231,220.525,413.037,85.589,482.665,105.486z"/>
</g>
<g>
	<g>
		<defs>
			<path id="SVGID_1_" d="M247.575,904.844c0.138,0.263,0.287,0.485,0.46,0.628C247.877,905.26,247.733,905.055,247.575,904.844z
				 M797.41,326.383c-10.534-17.408-49.032-15.399-58.66-32.105c-15.474-26.852-34.717-46.227-57.673-60.071
				c-0.005-0.004-0.01-0.009-0.015-0.012c-0.026-0.014-0.051-0.027-0.078-0.041c-4.867-2.931-9.899-5.615-15.1-8.068
				c-30.923-16.436-31.062-15.365-64.87-21.631c-31.524-5.843-198.115-16.888-317.384,54.28
				c-20.361,10.858-37.069,22.53-48.727,34.368c0,0,1.767-0.827,4.91-2.172c-9.766,8.849-18.909,18.518-27.265,29.096
				c-25.145,31.83-44.319,61.2-56.779,87.925c-3.638,7.803-6.668,15.366-9.143,22.714c-9.687,17.829-18.254,37.604-25.27,59.605
				c0,0,5.557-9.048,17.686-20.693c-0.318,10.709,1.061,20.77,4.258,30.148c2.344,6.876,2.578,13.856,1.689,20.88
				c-21.39,44.731-30.633,106.503-4.354,189.307c14.796,53.28,36.641,89.145,36.641,89.145c0.119-0.97,0.27-1.909,0.395-2.875
				c17.827,33.499,40.777,69.651,69.902,108.662c-7.357-14.064,36.409-197.342,252.157-228.991
				c130.17-19.095,267.89-72.495,308.749-184.269C825.964,443.758,823.775,369.956,797.41,326.383z"/>
		</defs>
		<clipPath id="SVGID_2_">
			<use xlink:href="#SVGID_1_"  overflow="visible"/>
		</clipPath>
		<g transform="matrix(1 0 0 1 -7.629395e-006 0)" clip-path="url(#SVGID_2_)">
			
				<image overflow="visible" width="780" height="787" xlink:href="D24B0AFB.png"  transform="matrix(0.8965 0 0 0.8965 121.3577 200.1062)">
			</image>
		</g>
	</g>
</g>
<g>
	<path fill="#D83058" d="M789.582,392.059c0,0,2.607,30.914-13.12,34.088c-14.033,2.832-17.618-33.191-17.618-33.191l10.163-3.354
		L789.582,392.059"/>
</g>
<g>
	<path fill="#231815" d="M757.461,396.571c-7.157,0-14.715-2.825-20.628-11.299c-1.747-2.502-1.134-5.946,1.368-7.693
		c2.502-1.742,5.949-1.138,7.693,1.368c8.678,12.43,22.598,3.511,24.155,2.453c1.63-1.111,3.742-1.275,5.519-0.425
		c6.77,3.254,12.482,4.065,16.531,2.347c4.479-1.91,6.052-6.555,6.066-6.601c0.945-2.874,4.027-4.496,6.923-3.577
		c2.885,0.91,4.512,3.941,3.637,6.838c-0.292,0.958-3.09,9.459-12.07,13.407c-6.515,2.865-14.27,2.459-23.079-1.2
		C769.323,394.536,763.535,396.571,757.461,396.571z"/>
</g>
<g>
	<path fill="#E88F46" d="M698.164,177.706c0,0-14.948,7.435-20.073,50.758c0,0-30.44-17.282-40.899-17.309
		C637.191,211.155,682.954,155.97,698.164,177.706z"/>
</g>
<g>
	<path fill="#231815" d="M723.41,272.98c-4.013,0-7.379-3.133-7.62-7.191c-1.849-31.46-9.765-79.763-21.565-88.658
		c-1.386-1.041-2.181-0.981-2.907-0.819c-24.246,5.426-45.906,39.764-46.122,40.11c-2.232,3.58-6.942,4.669-10.524,2.444
		c-3.578-2.229-4.676-6.934-2.451-10.515c1.018-1.636,25.238-40.119,55.762-46.951c5.421-1.217,10.761,0.007,15.441,3.531
		c21.671,16.338,26.811,86.135,27.62,99.962c0.244,4.211-2.969,7.826-7.179,8.072C723.713,272.974,723.559,272.98,723.41,272.98z"/>
</g>
<g>
	
		<path fill="none" stroke="#231815" stroke-width="3.6983" stroke-linecap="round" stroke-linejoin="round" stroke-miterlimit="10" d="
		M396.231,217.681"/>
</g>
<g>
	
		<path fill="none" stroke="#231815" stroke-width="3.6983" stroke-linecap="round" stroke-linejoin="round" stroke-miterlimit="10" d="
		M582.316,204.455"/>
</g>
<g>
	<path fill="#231815" d="M755.469,321.731c9.267-3.064,16.909-1.569,22.408,1.106c4.753,1.921,9.32,5.361,12.891,11.128
		c7.2,11.625-7.48,35.995-16.288,37.975C765.672,373.921,719.769,333.534,755.469,321.731z"/>
</g>
<g>
	
		<path fill="none" stroke="#231815" stroke-width="3.6983" stroke-linecap="round" stroke-linejoin="round" stroke-miterlimit="10" d="
		M457.993,204.214"/>
</g>
<g>
	
		<ellipse transform="matrix(-0.9528 0.3037 -0.3037 -0.9528 1231.7855 291.8451)" fill="#FFBE92" cx="593.202" cy="241.693" rx="23.283" ry="9.895"/>
</g>
<g>
	<path fill="#231815" d="M396.455,222.094c-0.288,0-0.58-0.018-0.875-0.055c-3.786-0.48-6.464-3.936-5.982-7.72
		c2.138-16.893,10.618-37.338,16.809-52.268c2.214-5.342,4.279-10.775,6.27-16.03c10.885-28.665,22.123-58.321,55.157-52.133
		c43.638,8.167,102.358,67.603,119.138,102.156c0.066,0.131,0.252,0.56,0.482,1.147c0.171,0.441,0.416,1.087,0.635,1.585
		c0.937,1.331,1.408,2.997,1.215,4.742c-0.423,3.79-3.823,6.524-7.631,6.097c-4.381-0.491-5.752-3.996-7.08-7.387l-0.171-0.429
		c-17.173-35.343-73.261-87.62-109.125-94.335c-20.65-3.879-28.182,13.112-39.702,43.459c-2.032,5.351-4.133,10.883-6.427,16.42
		c-5.891,14.204-13.96,33.661-15.864,48.711C402.857,219.545,399.884,222.094,396.455,222.094z"/>
</g>
<g>
	<path fill="#231815" d="M791.863,329.217c18.877,20.726,19.202,53.273,19.486,81.99c0.047,4.868,0.095,9.63,0.226,14.222
		c0.981,34.153-9.48,70.445-29.463,102.187c-0.202,0.321-0.306,0.665-0.418,1.008c2.746-0.042,5.496-0.122,8.239-0.024
		c0.791,0.028,1.574,0.095,2.356,0.167c0.667-0.002,1.334-0.003,2.001,0c1.049-0.005,2.114-0.001,3.196,0
		c19.237-32.854,28.908-68.558,27.899-103.736c-0.131-4.509-0.175-9.183-0.223-13.962c-0.31-31.186-0.664-66.532-23.086-91.154
		c-8.638-9.484-19.968-12.101-29.962-14.408c-3.028-0.7-5.887-1.361-8.703-2.189c-9.167-2.692-12.727-7.965-18.115-15.946
		c-1.729-2.563-3.516-5.211-5.665-8.025c-19.18-25.118-46.191-45.863-78.116-59.99c-25.676-11.364-54.493-18.771-85.655-22.014
		c-3.867-0.418-7.19,2.364-7.584,6.156c-0.398,3.794,2.36,7.19,6.154,7.585c29.721,3.091,57.141,10.126,81.497,20.905
		c29.802,13.19,54.949,32.466,72.724,55.741c1.904,2.493,3.578,4.974,5.194,7.37c5.771,8.545,11.731,17.38,25.669,21.472
		c3.206,0.943,6.402,1.682,9.491,2.395C778.195,321.088,786.129,322.921,791.863,329.217z"/>
</g>
<g>
	<path fill="#231815" d="M400.796,263.474c-36.327-10.949-78.316-8.826-125.251,6.274c36.196-22.47,79.593-35.173,122.289-45.348
		c3.71-0.885,6-4.609,5.118-8.32c-0.886-3.713-4.618-6.006-8.32-5.118c-59.972,14.294-121.425,33.55-164.639,77.286
		c-2.345,2.373-2.659,6.084-0.744,8.816c1.915,2.734,5.504,3.704,8.539,2.316c41.128-18.879,78.634-28.554,112.09-28.968
		C238.6,296.311,141.856,383.591,114.673,488.538c-0.85,3.279,0.806,6.692,3.907,8.056c3.086,1.362,6.73,0.279,8.576-2.564
		c16.448-25.362,43.408-44.98,76.784-56.567c-39.311,30.064-68.708,75.424-80.206,126.065
		c-14.93,65.764-0.792,141.695,42.029,225.682c19.439,38.127,43.824,76.386,76.744,120.4c1.346,1.802,3.422,2.77,5.534,2.77
		c1.222,0,2.455-0.323,3.567-0.994c3.039-1.835,4.191-5.676,2.666-8.882c-4.56-9.577,0.886-22.36,5.694-33.641
		c0.773-1.818,1.525-3.588,2.181-5.198c13.178-31.228,31.77-60.139,54.572-85.726c-0.769,0.085-1.56,0.137-2.386,0.137
		c-5.141,0-9.176-1.711-12.122-4.388c-21.878,25.497-39.868,53.984-52.83,84.695c-0.66,1.63-1.382,3.323-2.123,5.065
		c-2.564,6.021-5.413,12.707-7.087,19.636C214.38,847.22,194.419,815,178.07,782.935c-41.314-81.03-55.062-153.82-40.862-216.349
		c14.062-61.951,56.569-115.401,110.934-139.492c3.137-1.39,4.778-4.872,3.852-8.176c-0.923-3.301-4.104-5.42-7.536-4.988
		c-42.12,5.45-78.852,21.419-105.276,45.146c41.42-98.813,147.335-174.751,260.071-182.095c3.334-0.217,6.033-2.789,6.413-6.108
		C406.045,267.554,403.995,264.439,400.796,263.474z"/>
</g>
<g>
	<g>
		<path fill="#231815" d="M552.731,692.458c4.337-21.107,10.367-47.198,18.1-78.278c-18.071,35.685-30.685,61.779-37.827,78.278
			H552.731z M713.092,604.509l-16.254,47.427c1.605,0.078,2.998,0.117,4.18,0.117c5.264,0,9.294-1.094,12.085-3.281
			c2.794-2.189,5.369-6.735,7.737-13.641l5.245-15.311c2.185-6.369,2.426-10.515,0.722-12.433
			C725.107,605.472,720.533,604.509,713.092,604.509z M338.392,528.342l-37.54,250.927H892.79l37.54-250.927H338.392z
			 M436.034,747.596c-5.161,4.299-11.18,7.273-18.052,8.922c-6.869,1.651-16.652,2.475-29.349,2.475h-28.707l11.166-32.578
			c3.367,0.23,5.822,0.345,7.368,0.345c4.085,0,7.595-0.843,10.535-2.533c2.94-1.687,5.012-3.757,6.216-6.214
			s3.017-7.212,5.435-14.275l44.94-131.111h57.32l-42.689,124.551c-6.391,18.647-10.728,30.639-13.011,35.974
			S441.199,743.299,436.034,747.596z M534.508,758.994l8.404-33.499h-20.5l-14.93,33.499h-59.261l93.115-186.367h82.85
			L593.09,758.994H534.508z M701.255,683.938h-15.386l-25.724,75.055h-57.324l63.875-186.367h57.732
			c15.609,0,27.259,1.034,34.949,3.104c7.682,2.076,12.968,5.067,15.846,8.979c2.878,3.918,4.115,8.654,3.702,14.217
			c-0.409,5.566-2.612,14.179-6.61,25.846l-5.563,16.229c-4.078,11.897-8.503,20.569-13.274,26.017
			c-4.771,5.45-11.534,9.632-20.296,12.548C724.422,682.481,713.781,683.938,701.255,683.938z M800.115,758.994h-57.324
			l63.875-186.367h57.324L800.115,758.994z"/>
	</g>
</g>
</svg>
