<?xml version="1.0" encoding="utf-8"?>
<!-- Generator: Adobe Illustrator 18.0.0, SVG Export Plug-In . SVG Version: 6.00 Build 0)  -->
<!DOCTYPE svg PUBLIC "-//W3C//DTD SVG 1.1//EN" "http://www.w3.org/Graphics/SVG/1.1/DTD/svg11.dtd">
<svg version="1.1" id="图形" xmlns="http://www.w3.org/2000/svg" xmlns:xlink="http://www.w3.org/1999/xlink" x="0px" y="0px"
	 viewBox="15.167 -16.333 1000.636 1000.678" enable-background="new 15.167 -16.333 1000.636 1000.678" xml:space="preserve">
<g>
	<g>
		<path fill="#E88F46" d="M477.558,107.115c0,0-38.172,13.115,13.309,102.046c0,0-28.246,1.898-60.361,4.335
			c-20.745,1.574-21.578,1.641-26.15,1.981c-0.524,0.039-0.466,0.092-1.284,0.254c-0.398,0.079-1.029,0.199-1.85,0.372
			c0,0-0.05-0.204-0.028-0.498c0.027-0.362,0.195-0.956,0.344-1.893c0.193-1.212,0.431-2.962,0.967-5.451
			c0.462-2.148,1.162-4.851,2.053-8.186c3.425-12.818,8.748-24.811,13.693-36.812c3.925-9.524,7.276-19.148,11.086-28.424
			c4.846-11.797,9.917-23.687,19.332-29.324c2.039-1.221,3.948-1.863,6.149-2.339C461.708,101.685,469.552,103.995,477.558,107.115z
			"/>
	</g>
	<g>
		<defs>
			<path id="SVGID_1_" d="M394.174,216.245c-73.528,17.542-135.413,46.927-165.309,77.283c0,0,96.227-45.289,167.946-23.584
				c0,0-215.02,8.397-284.295,225.618c0,0,36.387-59.479,127.049-71.206c0,0-280.295,118.09,2.756,496.657
				c-9.631-7.957,32.703-202.25,257.91-235.286c133.383-19.567,274.503-74.284,316.371-188.818
				c17.914-49.007,15.671-124.631-11.344-169.279c-10.793-17.838-50.243-15.779-60.108-32.898
				c-36.092-62.628-92.173-85.587-167.646-92.288"/>
		</defs>
		<clipPath id="SVGID_2_">
			<use xlink:href="#SVGID_1_"  overflow="visible"/>
		</clipPath>
		<g clip-path="url(#SVGID_2_)">
			<path fill="#F99F4E" d="M689.972,228.129l-91.626-23.828c0,0-40.151,1.069-108.075,4.333c-4.023,0.193-8.698,1.16-13.296,1.482
				c-4.821,0.338-9.196,0.674-15.079,1.067c-9.616,0.641-20.747,1.505-29.019,2.133c-6.98,0.529-16.101,1.169-19.809,1.504
				c-4.618,0.416-7.989,0.573-9.024,0.691c-2.269,0.259-14.877,2.556-25.27,5.079c-64.676,15.698-83.985,19.578-150.122,72.485
				c-4.289,3.431,36.559-16.756,70.814-23.211c44.74-8.43,86.01-3.916,77.439-1.735C198.929,313.42,124.527,441.173,121.883,468.593
				c-1.633,16.929,79.931-56.965,115.56-47.283c12.548,3.41-43.914,26.154-72.674,60.903c-28.76,34.749-38.445,85.724-40.374,98.084
				c-10.522,67.409,5.161,130.996,21.305,174.407c13.077,35.163,26.456,57.089,26.456,57.089
				c38.243-311.374,334.13-373.897,428.176-385.361C722.633,411.524,689.972,228.129,689.972,228.129z M636.515,306.757
				c-18.799,2.016-30.511-16.341-27.49-33.459c2.148-12.172,11.584-20.598,21.578-21.669c9.995-1.072,21.002,5.162,25.683,16.602
				C662.868,284.319,655.315,304.741,636.515,306.757z"/>
		</g>
	</g>
	<g>
		<path fill="#D83058" d="M797.235,394.928c0,0,2.672,31.677-13.444,34.93c-14.38,2.902-18.053-34.01-18.053-34.01l10.413-3.437
			L797.235,394.928"/>
	</g>
	<g>
		<path fill="#231815" d="M764.32,399.55c-7.333,0-15.074-2.895-21.133-11.578c-1.79-2.564-1.162-6.094,1.402-7.883
			c2.564-1.783,6.096-1.164,7.883,1.402c8.903,12.757,23.155,3.598,24.751,2.514c1.667-1.14,3.842-1.308,5.655-0.435
			c7.005,3.371,12.903,4.179,17.048,2.359c4.493-1.977,6.07-6.612,6.085-6.657c0.908-2.994,4.085-4.672,7.061-3.779
			c2.994,0.906,4.683,4.069,3.779,7.061c-0.299,0.981-3.166,9.694-12.368,13.74c-6.679,2.94-14.615,2.521-23.645-1.232
			C776.479,397.465,770.547,399.55,764.32,399.55z"/>
	</g>
	<g>
		<path fill="#E88F46" d="M701.571,176.656c0,0-13.221,5.355-18.472,49.747c0,0-8.094-4.408-16.304-8.091
			c-5.37-2.409-11.488-4.798-15.538-6.301c0,0,2.561-3.984,7.668-10.18c6.438-7.81,13.861-15.429,23.585-21.785
			c4.943-3.231,9.011-4.785,12.407-5.78c2.476-0.726,3.244-0.911,5.668,1.329C700.913,175.896,701.18,176.254,701.571,176.656z"/>
	</g>
	<g>
		
			<path fill="none" stroke="#231815" stroke-width="3.6983" stroke-linecap="round" stroke-linejoin="round" stroke-miterlimit="10" d="
			M394.174,216.245"/>
	</g>
	<g>
		
			<path fill="none" stroke="#231815" stroke-width="3.6983" stroke-linecap="round" stroke-linejoin="round" stroke-miterlimit="10" d="
			M584.854,202.693"/>
	</g>
	<g>
		<path fill="#231815" d="M762.28,322.864c9.496-3.14,17.326-1.607,22.961,1.133c4.87,1.969,9.55,5.494,13.209,11.403
			c7.377,11.912-7.665,36.884-16.69,38.913S725.699,334.958,762.28,322.864z"/>
	</g>
	<g>
		
			<path fill="none" stroke="#231815" stroke-width="3.6983" stroke-linecap="round" stroke-linejoin="round" stroke-miterlimit="10" d="
			M457.461,202.445"/>
	</g>
	<g>
		
			<ellipse transform="matrix(-0.9528 0.3037 -0.3037 -0.9528 1237.0085 289.3463)" fill="#FFBE92" cx="596.008" cy="240.849" rx="23.858" ry="10.139"/>
	</g>
	<g>
		<path fill="#231815" d="M554.538,702.741c4.444-21.628,10.623-48.363,18.547-80.21c-18.517,36.566-31.442,63.304-38.76,80.21
			H554.538z"/>
		<path fill="#231815" d="M718.857,612.622l-16.655,48.598c1.645,0.08,3.072,0.12,4.283,0.12c5.394,0,9.524-1.121,12.383-3.362
			c2.863-2.243,5.502-6.902,7.928-13.977l5.375-15.689c2.239-6.526,2.486-10.774,0.74-12.74
			C731.169,613.609,726.482,612.622,718.857,612.622z"/>
		<path fill="#231815" d="M805.67,534.575c19.53-33.539,29.28-69.978,28.254-105.862c-0.135-4.618-0.179-9.408-0.228-14.304
			c-0.318-31.956-0.68-68.175-23.66-93.406c-8.847-9.718-20.453-12.398-30.694-14.762c-3.106-0.716-6.036-1.394-8.922-2.243
			c-9.393-2.758-13.045-8.163-18.569-16.347c-1.768-2.622-3.599-5.336-5.801-8.217c-2.955-3.869-6.147-7.6-9.454-11.259
			c0.472-1.088,0.732-2.285,0.659-3.55c-0.834-14.168-6.1-85.69-28.302-102.429c-4.792-3.613-10.271-4.865-15.822-3.618
			c-31.281,6.999-56.1,46.434-57.143,48.11c-0.037,0.06-0.056,0.125-0.091,0.186c-14.334-4.34-29.381-7.673-45.081-9.907
			c-0.021-0.03-0.034-0.065-0.055-0.094c-0.224-0.51-0.471-1.17-0.647-1.622c-0.235-0.6-0.426-1.039-0.493-1.174
			c-17.194-35.406-77.364-96.309-122.079-104.679c-33.812-6.33-45.361,24.039-56.511,53.412c-2.045,5.386-4.16,10.957-6.433,16.435
			c-6.072,14.637-14.223,34.415-16.84,51.281c-59.922,14.535-120.79,34.37-163.929,78.03c-2.403,2.433-2.725,6.235-0.762,9.034
			c1.962,2.801,5.637,3.794,8.75,2.373c42.139-19.343,80.578-29.259,114.857-29.683c-114.024,26.536-213.156,115.971-241.01,223.508
			c-0.871,3.36,0.826,6.857,4.003,8.255c3.162,1.392,6.896,0.286,8.787-2.628c16.854-25.987,44.479-46.088,78.683-57.963
			c-40.285,30.807-70.404,77.285-82.189,129.18c-15.299,67.393-0.807,145.198,43.07,231.251
			c19.926,39.08,44.913,78.282,78.635,123.37c1.379,1.846,3.506,2.839,5.67,2.839c1.252,0,2.516-0.331,3.656-1.019
			c3.114-1.88,4.295-5.816,2.732-9.101c-4.672-9.81,0.908-22.907,5.835-34.462c0.796-1.865,1.566-3.68,2.239-5.336
			c13.246-31.395,31.698-60.613,54.445-86.478h591.761l38.466-257.121H805.67z M696.547,173.856
			c0.736-0.161,1.555-0.234,2.979,0.839c10.536,7.942,18.049,46.561,21.062,77.693c-15.753-13.736-34.184-25.398-54.578-34.425
			c-4.815-2.131-9.762-4.095-14.789-5.953C658.98,200.623,677.638,178.085,696.547,173.856z M297.25,786.286
			c-22.205,26.037-40.347,55.193-53.546,86.477c-0.677,1.673-1.417,3.411-2.179,5.197c-2.628,6.167-5.547,13.015-7.262,20.113
			c-26.422-36.74-46.875-69.756-63.631-102.62c-42.334-83.025-56.421-157.612-41.874-221.688
			c14.413-63.486,57.973-118.257,113.676-142.939c3.214-1.424,4.896-4.992,3.947-8.378c-0.946-3.381-4.197-5.549-7.722-5.111
			c-43.164,5.586-80.803,21.95-107.879,46.262c42.442-101.254,150.975-179.066,266.494-186.592c3.416-0.222,6.182-2.858,6.571-6.259
			c0.389-3.401-1.712-6.592-4.99-7.58c-37.232-11.224-80.264-9.043-128.351,6.433c37.09-23.03,81.561-36.043,125.312-46.47
			c3.467-0.827,5.694-4.076,5.378-7.525c0.094-0.334,0.183-0.67,0.228-1.025c1.955-15.441,10.219-35.367,16.252-49.914
			c2.355-5.678,4.508-11.35,6.59-16.835c11.804-31.091,19.511-48.494,40.678-44.524c35.421,6.632,90.079,56.635,109.742,92.668
			c-2.267,0.985-3.947,3.106-4.218,5.737c-0.407,3.887,2.418,7.367,6.306,7.773c30.459,3.168,58.556,10.376,83.513,21.421
			c30.541,13.519,56.309,33.27,74.516,57.115c1.951,2.555,3.663,5.093,5.323,7.548c5.909,8.758,12.024,17.812,26.306,22.008
			c3.289,0.966,6.564,1.723,9.729,2.454c9.412,2.174,17.541,4.05,23.413,10.501c19.347,21.24,19.679,54.592,19.971,84.017
			c0.049,4.986,0.097,9.864,0.232,14.568c1.002,35-9.722,72.189-30.194,104.713c-0.151,0.239-0.251,0.494-0.37,0.744H334.908
			L297.25,786.286z M434.96,759.241c-5.289,4.405-11.456,7.453-18.498,9.143c-7.038,1.691-17.063,2.536-30.074,2.536h-29.416
			l11.441-33.382c3.45,0.235,5.965,0.353,7.55,0.353c4.186,0,7.782-0.863,10.795-2.596c3.013-1.729,5.136-3.85,6.369-6.367
			c1.233-2.517,3.091-7.39,5.569-14.628l46.049-134.348h58.735l-43.743,127.625c-6.549,19.107-10.992,31.395-13.332,36.862
			C444.065,749.906,440.253,754.838,434.96,759.241z M535.864,770.92l8.612-34.326H523.47l-15.299,34.326h-60.723l95.413-190.967
			h84.896L595.892,770.92H535.864z M706.728,694.012h-15.766l-26.359,76.908h-58.739l65.452-190.967h59.157
			c15.994,0,27.932,1.06,35.811,3.181c7.872,2.127,13.288,5.192,16.237,9.201c2.949,4.014,4.216,8.868,3.794,14.568
			c-0.419,5.704-2.676,14.529-6.773,26.484l-5.7,16.629c-4.179,12.191-8.713,21.077-13.602,26.659
			c-4.889,5.584-11.819,9.87-20.797,12.858C730.466,692.519,719.563,694.012,706.728,694.012z M808.028,770.92H749.29
			l65.452-190.967h58.739L808.028,770.92z"/>
	</g>
</g>
</svg>
